# xmcd
#
# Track frame offsets: 
#        150
#        12352
#        27272
#        43992
#        59247
#        78050
#        92002
#        106225
#        118227
#        130245
#        144422
#
# Disc length: 2192 seconds
#
# Revision: 4
# Processed by: cddbd v1.5.2PL0 Copyright (c) Steve Scherf et al.
# Submitted via: ExactAudioCopyFreeDBPlugin 1.0
#
DISCID=95088e0b
DTITLE=Nanci Griffith - Little Love Affairs
DYEAR=1998
DGENRE=Country
TTITLE0=Anyone Can Be Somebody's Fool
TTITLE1=I Knew Love
TTITLE2=Nevermind
TTITLE3=Love Wore A Halo (Back Before the War)
TTITLE4=So Long Ago
TTITLE5=Gulf Coast Highway
TTITLE6=Little Love Affairs
TTITLE7=I Wish It Would Rain
TTITLE8=Outbound Plane
TTITLE9=I Would Change My Life
TTITLE10=Sweet Dreams Will Come
EXTD=YEAR: 1998
EXTT0=
EXTT1=
EXTT2=
EXTT3=
EXTT4=
EXTT5=
EXTT6=
EXTT7=
EXTT8=
EXTT9=
EXTT10=
PLAYORDER=
